<?xml version="1.0" standalone="no"?>
<!DOCTYPE svg PUBLIC "-//W3C//DTD SVG 20010904//EN"
 "http://www.w3.org/TR/2001/REC-SVG-20010904/DTD/svg10.dtd">
<svg version="1.0" xmlns="http://www.w3.org/2000/svg"
 width="632.000000pt" height="291.175626pt" viewBox="0 0 632.000000 291.175626"
 preserveAspectRatio="xMidYMid meet">
<metadata>
Created by potrace 1.12, written by Peter Selinger 2001-2015
</metadata>
<g transform="translate(-33.000000,331.458487) scale(0.100000,-0.100000)"
fill="#4d4100" stroke="none">
<path d="M3775 3310 c-4 -7 -1 -23 6 -37 12 -22 11 -27 -6 -39 -22 -16 -45
-18 -45 -4 0 6 -9 10 -20 10 -23 0 -24 -4 -10 -30 8 -15 4 -32 -16 -72 -15
-29 -49 -116 -75 -192 -27 -76 -58 -150 -70 -163 -29 -30 -62 -30 -82 1 -35
52 -90 205 -123 336 -25 100 -32 52 -9 -62 39 -191 78 -296 122 -325 59 -39
118 -8 158 82 28 61 92 258 106 325 7 32 16 50 25 50 17 0 17 -5 0 -99 -23
-124 -38 -245 -38 -319 -1 -81 17 -115 67 -132 28 -9 40 -8 81 11 49 23 142
112 196 187 33 44 42 49 54 31 3 -6 -12 -30 -34 -52 -21 -23 -56 -73 -77 -112
-21 -38 -41 -75 -46 -80 -15 -20 -59 -164 -59 -195 0 -30 -2 -32 -27 -26 -151
32 -574 33 -686 2 -32 -9 -60 -16 -61 -16 -2 0 -9 30 -15 66 -7 36 -20 87 -31
113 -30 77 -111 202 -163 254 -41 40 -46 48 -31 54 13 5 25 -3 43 -28 39 -52
132 -137 171 -156 48 -24 112 -23 140 2 52 47 76 180 67 371 -5 97 -4 134 4
134 33 0 52 77 25 100 -23 18 -61 8 -64 -17 -3 -19 1 -23 22 -23 18 0 24 -4
20 -15 -9 -21 -31 -19 -44 5 -6 11 -15 20 -20 20 -19 0 -10 -34 15 -60 l25
-26 -10 -124 c-10 -130 -35 -281 -51 -312 -5 -10 -19 -22 -30 -28 -40 -22
-127 26 -233 128 -44 43 -52 55 -48 80 5 35 -21 64 -52 60 -29 -4 -36 -48 -7
-48 25 0 27 -13 5 -31 -14 -11 -19 -9 -36 14 -21 29 -48 36 -48 12 0 -19 35
-55 54 -55 22 0 206 -303 206 -340 0 -5 14 -38 30 -72 17 -34 30 -67 30 -74 0
-6 -15 -18 -32 -25 l-33 -14 45 -5 c25 -3 55 -2 66 2 12 3 100 11 195 17 172
11 327 5 494 -19 87 -12 155 -13 155 -2 0 5 -18 16 -39 24 l-39 16 38 93 c72
180 181 375 214 385 27 8 66 44 66 61 0 20 -19 16 -52 -12 -24 -20 -33 -23
-49 -14 -16 8 -18 13 -8 25 6 8 9 17 6 21 -9 8 -37 -17 -37 -34 0 -7 -17 -28
-37 -46 -21 -18 -75 -67 -121 -109 -95 -88 -128 -99 -159 -52 -16 25 -16 37 0
218 10 105 17 206 17 225 0 23 9 44 31 68 17 20 29 44 27 55 -4 27 -43 54 -53
38z"/>
<path d="M330 2362 c0 -22 2 -22 208 -23 114 -1 218 -3 232 -4 14 -2 385 -6
825 -9 440 -3 880 -9 978 -12 171 -5 177 -5 177 14 0 18 -9 20 -112 26 -62 3
-466 8 -898 11 -432 3 -926 8 -1097 12 l-313 6 0 -21z"/>
<path d="M4230 2323 c0 -23 -185 -19 1808 -39 606 -6 612 -6 612 13 0 20 -10
20 -482 27 -266 3 -810 9 -1210 12 -726 7 -728 7 -728 -13z"/>
<path d="M3278 1780 c-20 -80 -35 -146 -34 -148 2 -1 11 14 21 34 44 94 155
160 287 171 64 6 67 5 73 -18 3 -13 4 -208 2 -434 -3 -443 -5 -456 -57 -482
-21 -11 0 -13 140 -13 140 0 161 2 140 13 -54 27 -55 36 -58 505 l-3 432 45 0
c136 0 261 -66 313 -163 8 -16 17 -27 19 -24 3 2 -10 64 -27 138 l-31 134
-397 0 -396 0 -37 -145z"/>
<path d="M4575 1920 c-355 -5 -369 -6 -339 -22 58 -32 59 -41 59 -505 0 -412
0 -422 -21 -450 -11 -15 -32 -34 -45 -40 -27 -14 -63 -13 451 -16 151 -1 282
-6 291 -10 14 -7 22 9 48 95 18 57 46 140 63 186 32 84 33 120 3 61 -52 -100
-162 -199 -263 -237 -56 -21 -86 -25 -177 -26 -181 -2 -185 7 -185 364 l0 230
103 0 c90 0 109 -3 154 -25 39 -20 56 -36 77 -76 16 -28 30 -48 33 -46 4 5
-44 287 -51 294 -2 3 -7 -4 -10 -15 -14 -43 -52 -55 -180 -56 l-121 -1 0 70
c1 99 9 124 50 141 71 29 264 5 345 -44 46 -28 118 -99 136 -134 9 -17 17 -28
19 -26 5 4 -53 255 -63 278 -6 13 -55 14 -377 10z"/>
<path d="M1111 1900 c64 -33 64 -37 64 -505 0 -456 -1 -465 -55 -492 -21 -11
-5 -13 110 -12 80 0 127 4 115 8 -35 15 -53 44 -64 105 -12 65 -14 734 -2 775
6 22 10 18 48 -45 23 -38 70 -121 105 -184 143 -255 163 -289 170 -282 3 4 49
77 101 164 52 86 112 183 134 216 21 33 50 81 65 106 15 25 32 46 38 46 8 0
10 -126 8 -414 -3 -403 -4 -415 -24 -443 -11 -15 -32 -34 -45 -40 -22 -12 -19
-13 31 -13 118 -2 197 -2 245 -1 47 1 48 2 25 14 -14 6 -35 32 -47 57 -23 44
-23 49 -23 442 0 450 2 463 69 498 l36 19 -182 1 -181 0 11 -30 c14 -36 3 -59
-90 -210 -36 -58 -78 -124 -92 -147 -14 -23 -30 -41 -35 -40 -15 5 -206 355
-206 378 0 7 7 21 17 31 16 17 9 18 -183 18 l-199 -1 36 -19z"/>
<path d="M2645 1900 c26 -29 21 -70 -21 -185 -20 -55 -41 -113 -47 -130 -6
-16 -16 -41 -24 -55 -7 -14 -13 -30 -13 -35 0 -6 -16 -51 -36 -100 -19 -50
-53 -137 -73 -195 -72 -197 -118 -281 -165 -300 -13 -6 34 -9 129 -9 134 0
147 1 119 13 -69 30 -67 89 12 294 24 62 44 119 44 126 0 30 25 37 95 27 178
-25 338 -172 353 -322 6 -59 -12 -105 -47 -124 -25 -13 -22 -14 44 -15 93 -2
192 -2 234 -1 l34 1 -27 21 c-29 23 -44 54 -86 179 -16 47 -61 177 -100 290
-153 437 -165 483 -135 514 8 8 15 17 15 20 0 3 -73 6 -162 6 -161 0 -161 0
-143 -20z m174 -276 c22 -65 56 -163 75 -216 20 -54 33 -98 30 -98 -3 0 -19 9
-34 20 -53 38 -135 69 -204 79 -37 5 -71 12 -73 15 -6 5 24 90 94 271 19 50
37 94 40 99 7 11 20 -20 72 -170z"/>
<path d="M5177 1900 c68 -41 68 -41 70 -480 2 -353 1 -400 -15 -445 -13 -39
-25 -54 -52 -67 -38 -20 -23 -20 455 -19 77 1 158 -3 180 -8 22 -6 41 -8 43
-6 3 3 103 288 122 348 12 39 4 33 -20 -13 -11 -22 -51 -72 -89 -110 -79 -81
-164 -126 -269 -142 -84 -13 -132 -5 -163 28 l-24 26 0 411 c0 449 -1 441 58
477 l32 20 -180 0 -180 0 32 -20z"/>
<path d="M2693 618 c-28 -13 -39 -44 -23 -63 6 -8 33 -22 58 -31 26 -10 53
-22 60 -27 17 -14 15 -64 -4 -71 -34 -13 -84 -6 -106 16 -17 17 -20 18 -15 4
4 -10 7 -21 7 -26 0 -4 20 -11 45 -14 55 -9 96 9 109 46 16 46 -5 74 -73 99
-61 22 -72 34 -49 57 17 17 49 15 76 -4 13 -9 22 -11 22 -4 0 12 -43 30 -68
29 -9 0 -27 -5 -39 -11z"/>
<path d="M3640 617 c66 -23 98 -104 65 -166 -16 -32 -43 -43 -82 -32 -66 18
-92 124 -43 176 21 22 22 25 5 19 -45 -17 -74 -79 -60 -126 11 -36 56 -77 91
-84 42 -8 100 20 119 57 20 37 19 89 -1 118 -19 26 -72 51 -106 50 -18 0 -15
-3 12 -12z"/>
<path d="M2850 604 c0 -12 4 -14 13 -7 6 6 19 13 27 16 9 3 3 6 -12 6 -20 1
-28 -4 -28 -15z"/>
<path d="M2918 515 c3 -91 6 -105 20 -105 15 0 17 13 17 105 0 98 -1 105 -20
105 -19 0 -20 -6 -17 -105z"/>
<path d="M2985 610 c27 -12 35 -12 35 0 0 6 -12 10 -27 9 -25 0 -26 -1 -8 -9z"/>
<path d="M3120 604 c0 -12 4 -14 13 -7 6 6 19 13 27 16 9 3 3 6 -12 6 -20 1
-28 -4 -28 -15z"/>
<path d="M3188 515 c3 -81 6 -105 17 -105 11 0 14 24 17 105 3 99 2 105 -17
105 -19 0 -20 -6 -17 -105z"/>
<path d="M3250 613 c8 -3 21 -10 28 -16 8 -7 12 -5 12 7 0 11 -8 16 -27 15
-16 0 -22 -3 -13 -6z"/>
<path d="M3330 515 c0 -93 2 -105 18 -105 15 0 17 10 15 92 -1 54 2 97 9 105
8 10 5 13 -16 13 l-26 0 0 -105z"/>
<path d="M3439 606 c18 -22 5 -51 -32 -70 -25 -12 -28 -16 -11 -16 21 0 64
-63 64 -94 0 -9 8 -16 20 -16 17 0 18 3 9 27 -5 15 -19 44 -31 64 l-20 37 21
21 c28 28 23 55 -9 59 -21 3 -22 2 -11 -12z"/>
<path d="M3798 515 c-3 -99 -2 -105 17 -105 18 0 20 6 17 48 -3 42 -1 50 20
60 20 10 20 11 3 9 -16 -2 -21 5 -23 31 -2 18 2 40 9 48 9 11 7 14 -14 14
l-26 0 -3 -105z"/>
<path d="M3903 610 c23 -14 22 -29 -4 -56 -21 -23 -21 -23 -1 -17 56 14 69 76
17 81 -25 2 -27 1 -12 -8z"/>
<path d="M3980 515 l0 -105 74 0 c65 0 74 2 79 20 6 24 1 25 -20 4 -10 -10
-29 -14 -57 -12 l-41 3 -3 64 -3 63 35 -4 c22 -2 36 0 36 7 0 7 -14 9 -36 7
-36 -4 -37 -4 -32 27 4 25 1 31 -14 31 -16 0 -18 -10 -18 -105z"/>
<path d="M4071 616 c2 -2 14 -9 27 -15 18 -10 22 -9 22 4 0 10 -9 15 -27 15
-14 0 -24 -2 -22 -4z"/>
<path d="M4176 605 c-5 -13 -2 -14 17 -4 32 17 33 19 10 19 -12 0 -23 -7 -27
-15z"/>
<path d="M4257 581 c-10 -21 -35 -67 -57 -100 -22 -34 -40 -64 -40 -66 0 -3
33 -5 74 -5 58 0 75 3 80 16 10 25 7 26 -16 10 -19 -14 -98 -23 -98 -12 0 2
18 33 40 67 21 35 48 79 59 97 l20 32 -22 0 c-16 0 -27 -11 -40 -39z"/>
<path d="M3040 490 c0 -5 14 -10 30 -10 17 0 30 5 30 10 0 6 -13 10 -30 10
-16 0 -30 -4 -30 -10z"/>
</g>
</svg>
